<svg xmlns="http://www.w3.org/2000/svg" xmlns:xlink="http://www.w3.org/1999/xlink" width="500" zoomAndPan="magnify" viewBox="0 0 375 374.999991" height="500" preserveAspectRatio="xMidYMid meet" version="1.0"><defs><g/><clipPath id="fe80fb83bf"><path d="M 112.5 118 L 118 118 L 118 185 L 112.5 185 Z M 112.5 118 " clip-rule="nonzero"/></clipPath><clipPath id="6d98294891"><path d="M 121 97.769531 L 127 97.769531 L 127 205.019531 L 121 205.019531 Z M 121 97.769531 " clip-rule="nonzero"/></clipPath><clipPath id="c85b9e24b0"><path d="M 257 143 L 262.5 143 L 262.5 159 L 257 159 Z M 257 143 " clip-rule="nonzero"/></clipPath></defs><g clip-path="url(#fe80fb83bf)"><path fill="#231b26" d="M 114.980469 118.773438 C 113.609375 118.773438 112.5 119.886719 112.5 121.261719 L 112.5 181.566406 C 112.5 182.941406 113.609375 184.054688 114.980469 184.054688 C 116.351562 184.054688 117.460938 182.941406 117.460938 181.566406 L 117.460938 121.261719 C 117.460938 119.886719 116.351562 118.773438 114.980469 118.773438 " fill-opacity="1" fill-rule="nonzero"/></g><g clip-path="url(#6d98294891)"><path fill="#231b26" d="M 124.042969 97.785156 C 122.671875 97.785156 121.5625 98.898438 121.5625 100.273438 L 121.5625 202.554688 C 121.5625 203.929688 122.671875 205.042969 124.042969 205.042969 C 125.414062 205.042969 126.523438 203.929688 126.523438 202.554688 L 126.523438 100.273438 C 126.523438 98.898438 125.414062 97.785156 124.042969 97.785156 " fill-opacity="1" fill-rule="nonzero"/></g><path fill="#231b26" d="M 133.105469 110.378906 C 131.734375 110.378906 130.625 111.492188 130.625 112.867188 L 130.625 189.960938 C 130.625 191.335938 131.734375 192.449219 133.105469 192.449219 C 134.476562 192.449219 135.585938 191.335938 135.585938 189.960938 L 135.585938 112.867188 C 135.585938 111.492188 134.476562 110.378906 133.105469 110.378906 " fill-opacity="1" fill-rule="nonzero"/><path fill="#231b26" d="M 142.167969 118.773438 C 140.796875 118.773438 139.6875 119.886719 139.6875 121.261719 L 139.6875 181.566406 C 139.6875 182.941406 140.796875 184.054688 142.167969 184.054688 C 143.539062 184.054688 144.648438 182.941406 144.648438 181.566406 L 144.648438 121.261719 C 144.648438 119.886719 143.539062 118.773438 142.167969 118.773438 " fill-opacity="1" fill-rule="nonzero"/><path fill="#231b26" d="M 151.230469 135.5625 C 149.859375 135.5625 148.75 136.679688 148.75 138.054688 L 148.75 164.773438 C 148.75 166.148438 149.859375 167.265625 151.230469 167.265625 C 152.601562 167.265625 153.710938 166.148438 153.710938 164.773438 L 153.710938 138.054688 C 153.710938 136.679688 152.601562 135.5625 151.230469 135.5625 " fill-opacity="1" fill-rule="nonzero"/><path fill="#231b26" d="M 160.292969 127.167969 C 158.921875 127.167969 157.8125 128.28125 157.8125 129.660156 L 157.8125 173.167969 C 157.8125 174.546875 158.921875 175.660156 160.292969 175.660156 C 161.664062 175.660156 162.773438 174.546875 162.773438 173.167969 L 162.773438 129.660156 C 162.773438 128.28125 161.664062 127.167969 160.292969 127.167969 " fill-opacity="1" fill-rule="nonzero"/><path fill="#231b26" d="M 169.355469 139.761719 C 167.984375 139.761719 166.871094 140.875 166.871094 142.25 L 166.871094 160.578125 C 166.871094 161.953125 167.984375 163.066406 169.355469 163.066406 C 170.722656 163.066406 171.835938 161.953125 171.835938 160.578125 L 171.835938 142.25 C 171.835938 140.875 170.722656 139.761719 169.355469 139.761719 " fill-opacity="1" fill-rule="nonzero"/><path fill="#231b26" d="M 178.417969 131.367188 C 177.046875 131.367188 175.933594 132.480469 175.933594 133.855469 L 175.933594 168.972656 C 175.933594 170.347656 177.046875 171.464844 178.417969 171.464844 C 179.785156 171.464844 180.898438 170.347656 180.898438 168.972656 L 180.898438 133.855469 C 180.898438 132.480469 179.785156 131.367188 178.417969 131.367188 " fill-opacity="1" fill-rule="nonzero"/><path fill="#231b26" d="M 187.480469 118.773438 C 186.109375 118.773438 184.996094 119.886719 184.996094 121.261719 L 184.996094 181.566406 C 184.996094 182.941406 186.109375 184.054688 187.480469 184.054688 C 188.851562 184.054688 189.960938 182.941406 189.960938 181.566406 L 189.960938 121.261719 C 189.960938 119.886719 188.851562 118.773438 187.480469 118.773438 " fill-opacity="1" fill-rule="nonzero"/><path fill="#231b26" d="M 196.542969 110.378906 C 195.171875 110.378906 194.058594 111.492188 194.058594 112.867188 L 194.058594 189.960938 C 194.058594 191.335938 195.171875 192.449219 196.542969 192.449219 C 197.910156 192.449219 199.023438 191.335938 199.023438 189.960938 L 199.023438 112.867188 C 199.023438 111.492188 197.910156 110.378906 196.542969 110.378906 " fill-opacity="1" fill-rule="nonzero"/><path fill="#231b26" d="M 205.601562 118.773438 C 204.234375 118.773438 203.121094 119.886719 203.121094 121.261719 L 203.121094 181.566406 C 203.121094 182.941406 204.234375 184.054688 205.601562 184.054688 C 206.972656 184.054688 208.085938 182.941406 208.085938 181.566406 L 208.085938 121.261719 C 208.085938 119.886719 206.972656 118.773438 205.601562 118.773438 " fill-opacity="1" fill-rule="nonzero"/><path fill="#231b26" d="M 214.664062 135.5625 C 213.296875 135.5625 212.183594 136.679688 212.183594 138.054688 L 212.183594 164.773438 C 212.183594 166.148438 213.296875 167.265625 214.664062 167.265625 C 216.035156 167.265625 217.148438 166.148438 217.148438 164.773438 L 217.148438 138.054688 C 217.148438 136.679688 216.035156 135.5625 214.664062 135.5625 " fill-opacity="1" fill-rule="nonzero"/><path fill="#231b26" d="M 223.730469 131.367188 C 222.359375 131.367188 221.246094 132.480469 221.246094 133.855469 L 221.246094 168.972656 C 221.246094 170.347656 222.359375 171.464844 223.730469 171.464844 C 225.097656 171.464844 226.210938 170.347656 226.210938 168.972656 L 226.210938 133.855469 C 226.210938 132.480469 225.097656 131.367188 223.730469 131.367188 " fill-opacity="1" fill-rule="nonzero"/><path fill="#231b26" d="M 232.789062 122.96875 C 231.421875 122.96875 230.308594 124.085938 230.308594 125.460938 L 230.308594 177.367188 C 230.308594 178.742188 231.421875 179.859375 232.789062 179.859375 C 234.160156 179.859375 235.269531 178.742188 235.269531 177.367188 L 235.269531 125.460938 C 235.269531 124.085938 234.160156 122.96875 232.789062 122.96875 " fill-opacity="1" fill-rule="nonzero"/><path fill="#231b26" d="M 241.851562 135.5625 C 240.480469 135.5625 239.371094 136.679688 239.371094 138.054688 L 239.371094 164.773438 C 239.371094 166.148438 240.480469 167.265625 241.851562 167.265625 C 243.222656 167.265625 244.335938 166.148438 244.335938 164.773438 L 244.335938 138.054688 C 244.335938 136.679688 243.222656 135.5625 241.851562 135.5625 " fill-opacity="1" fill-rule="nonzero"/><path fill="#231b26" d="M 250.914062 139.761719 C 249.546875 139.761719 248.433594 140.875 248.433594 142.25 L 248.433594 160.578125 C 248.433594 161.953125 249.546875 163.066406 250.914062 163.066406 C 252.285156 163.066406 253.398438 161.953125 253.398438 160.578125 L 253.398438 142.25 C 253.398438 140.875 252.285156 139.761719 250.914062 139.761719 " fill-opacity="1" fill-rule="nonzero"/><g clip-path="url(#c85b9e24b0)"><path fill="#231b26" d="M 259.976562 143.957031 C 258.605469 143.957031 257.496094 145.074219 257.496094 146.449219 L 257.496094 156.378906 C 257.496094 157.753906 258.605469 158.871094 259.976562 158.871094 C 261.347656 158.871094 262.457031 157.753906 262.457031 156.378906 L 262.457031 146.449219 C 262.457031 145.074219 261.347656 143.957031 259.976562 143.957031 " fill-opacity="1" fill-rule="nonzero"/></g><g fill="#ffab01" fill-opacity="1"><g transform="translate(99.16443, 236.919419)"><g><path d="M 20.109375 -17.015625 L 11.171875 -17.015625 L 11.171875 -20.78125 L 20.78125 -20.78125 L 21.890625 -27.921875 L 2.234375 -27.921875 L 2.234375 0 L 22.109375 0 L 22.109375 -7.15625 L 11.171875 -7.15625 L 11.171875 -10.53125 L 20.109375 -10.53125 Z M 20.109375 -17.015625 "/></g></g></g><g fill="#ffab01" fill-opacity="1"><g transform="translate(122.843021, 236.919419)"><g><path d="M 12.8125 -23.015625 C 19.957031 -23.015625 23.53125 -20.554688 23.53125 -15.640625 L 23.53125 0 L 19.0625 0 L 16.53125 -2.53125 C 16.082031 -2.03125 15.550781 -1.582031 14.9375 -1.1875 C 14.332031 -0.789062 13.679688 -0.457031 12.984375 -0.1875 C 12.296875 0.0820312 11.59375 0.289062 10.875 0.4375 C 10.15625 0.59375 9.457031 0.671875 8.78125 0.671875 C 7.519531 0.671875 6.382812 0.539062 5.375 0.28125 C 4.375 0.0195312 3.523438 -0.394531 2.828125 -0.96875 C 2.128906 -1.539062 1.59375 -2.296875 1.21875 -3.234375 C 0.851562 -4.179688 0.671875 -5.335938 0.671875 -6.703125 C 0.671875 -12.066406 4.71875 -14.75 12.8125 -14.75 L 14.59375 -14.75 L 14.59375 -16.34375 C 14.125 -16.375 13.695312 -16.398438 13.3125 -16.421875 C 12.925781 -16.441406 12.570312 -16.453125 12.25 -16.453125 C 8.894531 -16.453125 6.003906 -16.046875 3.578125 -15.234375 L 2.5 -21.640625 C 5.476562 -22.554688 8.914062 -23.015625 12.8125 -23.015625 Z M 9.6875 -7.671875 L 9.6875 -5.84375 L 11.546875 -5.84375 C 12.835938 -5.84375 13.679688 -5.992188 14.078125 -6.296875 C 14.421875 -6.617188 14.59375 -7.003906 14.59375 -7.453125 L 14.59375 -9.5625 L 12.765625 -9.5625 C 11.703125 -9.5625 10.921875 -9.453125 10.421875 -9.234375 C 9.929688 -9.015625 9.6875 -8.492188 9.6875 -7.671875 Z M 9.6875 -7.671875 "/></g></g></g><g fill="#ffab01" fill-opacity="1"><g transform="translate(148.159754, 236.919419)"><g><path d="M 2.234375 0 L 2.234375 -22.34375 L 6.703125 -22.34375 L 9.15625 -19.84375 C 10.945312 -21.476562 13.15625 -22.535156 15.78125 -23.015625 L 16.3125 -14.5625 C 15.957031 -14.5625 15.53125 -14.507812 15.03125 -14.40625 C 14.539062 -14.3125 14.039062 -14.1875 13.53125 -14.03125 C 13.019531 -13.882812 12.550781 -13.707031 12.125 -13.5 C 11.707031 -13.289062 11.390625 -13.046875 11.171875 -12.765625 L 11.171875 0 Z M 2.234375 0 "/></g></g></g><g fill="#ffab01" fill-opacity="1"><g transform="translate(164.91348, 236.919419)"><g><path d="M 1.046875 6.03125 L 2.203125 -0.640625 C 4.753906 0.234375 7.71875 0.671875 11.09375 0.671875 C 11.59375 0.671875 12.019531 0.664062 12.375 0.65625 C 12.738281 0.644531 13.019531 0.625 13.21875 0.59375 L 13.21875 -0.96875 C 11.875 -0.96875 10.78125 -1 9.9375 -1.0625 C 9.09375 -1.125 8.460938 -1.21875 8.046875 -1.34375 C 7.203125 -1.5625 6.664062 -1.785156 6.4375 -2.015625 C 6.164062 -2.234375 6.003906 -2.410156 5.953125 -2.546875 C 5.910156 -2.679688 5.890625 -2.890625 5.890625 -3.171875 L 7.21875 -7 C 5.082031 -7.394531 3.457031 -8.207031 2.34375 -9.4375 C 1.226562 -10.664062 0.671875 -12.582031 0.671875 -15.1875 C 0.671875 -17.769531 1.550781 -19.71875 3.3125 -21.03125 C 5.070312 -22.351562 7.925781 -23.015625 11.875 -23.015625 C 12.59375 -23.015625 13.257812 -22.992188 13.875 -22.953125 C 14.5 -22.921875 15.097656 -22.851562 15.671875 -22.75 L 19.578125 -25.734375 L 24.28125 -21.21875 L 21.703125 -18.25 C 22.097656 -17.226562 22.296875 -15.882812 22.296875 -14.21875 C 22.296875 -13.050781 22.160156 -12.03125 21.890625 -11.15625 C 21.617188 -10.289062 21.164062 -9.5625 20.53125 -8.96875 C 19.894531 -8.375 19.066406 -7.910156 18.046875 -7.578125 C 17.035156 -7.242188 15.773438 -7.015625 14.265625 -6.890625 L 14.078125 -5.8125 C 15.691406 -5.707031 17.054688 -5.550781 18.171875 -5.34375 C 19.285156 -5.132812 20.191406 -4.804688 20.890625 -4.359375 C 21.585938 -3.910156 22.085938 -3.335938 22.390625 -2.640625 C 22.703125 -1.941406 22.859375 -1.0625 22.859375 0 C 22.859375 1.789062 22.5 3.179688 21.78125 4.171875 C 21.0625 5.160156 20.125 5.890625 18.96875 6.359375 C 17.8125 6.835938 16.507812 7.125 15.0625 7.21875 C 13.613281 7.320312 12.15625 7.375 10.6875 7.375 C 7.726562 7.375 4.515625 6.925781 1.046875 6.03125 Z M 9.078125 -15.1875 L 9.078125 -12.28125 L 10.46875 -12.28125 C 11.53125 -12.28125 12.304688 -12.390625 12.796875 -12.609375 C 13.296875 -12.835938 13.546875 -13.351562 13.546875 -14.15625 L 13.546875 -17.046875 L 12.140625 -17.046875 C 11.066406 -17.046875 10.285156 -16.9375 9.796875 -16.71875 C 9.316406 -16.5 9.078125 -15.988281 9.078125 -15.1875 Z M 9.078125 -15.1875 "/></g></g></g><g fill="#ffab01" fill-opacity="1"><g transform="translate(188.852687, 236.919419)"><g><path d="M 12.8125 -23.015625 C 19.957031 -23.015625 23.53125 -20.554688 23.53125 -15.640625 L 23.53125 0 L 19.0625 0 L 16.53125 -2.53125 C 16.082031 -2.03125 15.550781 -1.582031 14.9375 -1.1875 C 14.332031 -0.789062 13.679688 -0.457031 12.984375 -0.1875 C 12.296875 0.0820312 11.59375 0.289062 10.875 0.4375 C 10.15625 0.59375 9.457031 0.671875 8.78125 0.671875 C 7.519531 0.671875 6.382812 0.539062 5.375 0.28125 C 4.375 0.0195312 3.523438 -0.394531 2.828125 -0.96875 C 2.128906 -1.539062 1.59375 -2.296875 1.21875 -3.234375 C 0.851562 -4.179688 0.671875 -5.335938 0.671875 -6.703125 C 0.671875 -12.066406 4.71875 -14.75 12.8125 -14.75 L 14.59375 -14.75 L 14.59375 -16.34375 C 14.125 -16.375 13.695312 -16.398438 13.3125 -16.421875 C 12.925781 -16.441406 12.570312 -16.453125 12.25 -16.453125 C 8.894531 -16.453125 6.003906 -16.046875 3.578125 -15.234375 L 2.5 -21.640625 C 5.476562 -22.554688 8.914062 -23.015625 12.8125 -23.015625 Z M 9.6875 -7.671875 L 9.6875 -5.84375 L 11.546875 -5.84375 C 12.835938 -5.84375 13.679688 -5.992188 14.078125 -6.296875 C 14.421875 -6.617188 14.59375 -7.003906 14.59375 -7.453125 L 14.59375 -9.5625 L 12.765625 -9.5625 C 11.703125 -9.5625 10.921875 -9.453125 10.421875 -9.234375 C 9.929688 -9.015625 9.6875 -8.492188 9.6875 -7.671875 Z M 9.6875 -7.671875 "/></g></g></g><g fill="#ffab01" fill-opacity="1"><g transform="translate(214.16942, 236.919419)"><g><path d="M 4.390625 -21.453125 C 6.304688 -22.492188 8.925781 -23.015625 12.25 -23.015625 C 15.601562 -23.015625 18.671875 -22.554688 21.453125 -21.640625 L 20.40625 -15.5625 C 19.238281 -15.90625 18.082031 -16.148438 16.9375 -16.296875 C 15.800781 -16.453125 14.632812 -16.53125 13.4375 -16.53125 C 13.09375 -16.53125 12.664062 -16.515625 12.15625 -16.484375 C 11.644531 -16.460938 11.066406 -16.414062 10.421875 -16.34375 L 10.421875 -14.9375 C 11.785156 -14.9375 13.1875 -14.863281 14.625 -14.71875 C 16.070312 -14.582031 17.382812 -14.257812 18.5625 -13.75 C 19.738281 -13.25 20.703125 -12.492188 21.453125 -11.484375 C 22.210938 -10.484375 22.59375 -9.113281 22.59375 -7.375 C 22.59375 -6.15625 22.457031 -5.066406 22.1875 -4.109375 C 21.914062 -3.160156 21.492188 -2.398438 20.921875 -1.828125 C 20.328125 -1.253906 19.710938 -0.789062 19.078125 -0.4375 C 18.453125 -0.09375 17.628906 0.148438 16.609375 0.296875 C 15.816406 0.421875 14.96875 0.515625 14.0625 0.578125 C 13.15625 0.640625 12.179688 0.671875 11.140625 0.671875 C 7.484375 0.671875 4.140625 0.234375 1.109375 -0.640625 L 2.234375 -6.96875 C 3.503906 -6.59375 4.804688 -6.304688 6.140625 -6.109375 C 7.484375 -5.910156 8.882812 -5.8125 10.34375 -5.8125 C 11.019531 -5.8125 11.660156 -5.820312 12.265625 -5.84375 C 12.878906 -5.875 13.46875 -5.925781 14.03125 -6 L 14.03125 -7.40625 C 11.65625 -7.40625 9.664062 -7.5625 8.0625 -7.875 C 6.457031 -8.1875 5.164062 -8.664062 4.1875 -9.3125 C 3.207031 -9.957031 2.507812 -10.800781 2.09375 -11.84375 C 1.6875 -12.882812 1.484375 -14.125 1.484375 -15.5625 C 1.484375 -18.445312 2.453125 -20.410156 4.390625 -21.453125 Z M 4.390625 -21.453125 "/></g></g></g><g fill="#ffab01" fill-opacity="1"><g transform="translate(237.661861, 236.919419)"><g><path d="M 14.75 0 L 14.75 -15.640625 L 14.109375 -15.640625 C 13.710938 -15.640625 13.332031 -15.625 12.96875 -15.59375 C 12.613281 -15.570312 12.296875 -15.492188 12.015625 -15.359375 C 11.742188 -15.222656 11.535156 -15.015625 11.390625 -14.734375 C 11.242188 -14.460938 11.171875 -14.082031 11.171875 -13.59375 L 11.171875 0 L 2.234375 0 L 2.234375 -22.34375 L 6.703125 -22.34375 L 8.71875 -20.296875 C 10.53125 -22.109375 12.910156 -23.015625 15.859375 -23.015625 C 18.785156 -23.015625 20.921875 -22.40625 22.265625 -21.1875 C 24.128906 -22.40625 26.238281 -23.015625 28.59375 -23.015625 C 31 -23.015625 32.863281 -22.5625 34.1875 -21.65625 C 35.519531 -20.75 36.1875 -19.488281 36.1875 -17.875 L 36.1875 0 L 27.25 0 L 27.25 -15.640625 L 26.625 -15.640625 C 26.269531 -15.640625 25.921875 -15.625 25.578125 -15.59375 C 25.234375 -15.570312 24.929688 -15.503906 24.671875 -15.390625 C 24.410156 -15.285156 24.1875 -15.109375 24 -14.859375 C 23.8125 -14.609375 23.707031 -14.269531 23.6875 -13.84375 L 23.6875 0 Z M 14.75 0 "/></g></g></g></svg>